<mxfile host="65bd71144e">
    <diagram id="FeZDSQjhkeeP0c5kcx0Y" name="第 1 页">
        <mxGraphModel dx="1086" dy="689" grid="1" gridSize="10" guides="1" tooltips="1" connect="1" arrows="1" fold="1" page="1" pageScale="1" pageWidth="827" pageHeight="1169" math="0" shadow="0">
            <root>
                <mxCell id="0"/>
                <mxCell id="1" parent="0"/>
                <mxCell id="53" value="" style="rounded=0;whiteSpace=wrap;html=1;" vertex="1" parent="1">
                    <mxGeometry x="50" y="220" width="990" height="680" as="geometry"/>
                </mxCell>
                <mxCell id="43" value="" style="rounded=0;whiteSpace=wrap;html=1;fontSize=20;fillColor=#dae8fc;strokeColor=#6c8ebf;" parent="1" vertex="1">
                    <mxGeometry x="80" y="600" width="930" height="275" as="geometry"/>
                </mxCell>
                <mxCell id="41" value="" style="rounded=0;whiteSpace=wrap;html=1;fontSize=20;fillColor=#dae8fc;strokeColor=#6c8ebf;" parent="1" vertex="1">
                    <mxGeometry x="80" y="300" width="930" height="270" as="geometry"/>
                </mxCell>
                <mxCell id="4" value="" style="html=1;" parent="1" vertex="1">
                    <mxGeometry x="100" y="350" width="540" height="200" as="geometry"/>
                </mxCell>
                <mxCell id="9" value="CodePod 空间" style="text;html=1;align=center;verticalAlign=middle;resizable=0;points=[];autosize=1;strokeColor=none;fillColor=none;" parent="1" vertex="1">
                    <mxGeometry x="305" y="360" width="100" height="30" as="geometry"/>
                </mxCell>
                <mxCell id="10" value="工作空间" style="html=1;fillColor=#dae8fc;strokeColor=#6c8ebf;" parent="1" vertex="1">
                    <mxGeometry x="320" y="400" width="110" height="50" as="geometry"/>
                </mxCell>
                <mxCell id="11" value="空间模板" style="html=1;fillColor=#dae8fc;strokeColor=#6c8ebf;" parent="1" vertex="1">
                    <mxGeometry x="484" y="400" width="110" height="50" as="geometry"/>
                </mxCell>
                <mxCell id="13" value="数据空间" style="html=1;fillColor=#dae8fc;strokeColor=#6c8ebf;" parent="1" vertex="1">
                    <mxGeometry x="140" y="470" width="110" height="50" as="geometry"/>
                </mxCell>
                <mxCell id="14" value="" style="html=1;" parent="1" vertex="1">
                    <mxGeometry x="390" y="650" width="270" height="190" as="geometry"/>
                </mxCell>
                <mxCell id="15" value="通用" style="text;html=1;align=center;verticalAlign=middle;resizable=0;points=[];autosize=1;strokeColor=none;fillColor=none;" parent="1" vertex="1">
                    <mxGeometry x="510" y="660" width="50" height="30" as="geometry"/>
                </mxCell>
                <mxCell id="16" value="界面风格" style="html=1;fillColor=#dae8fc;strokeColor=#6c8ebf;" parent="1" vertex="1">
                    <mxGeometry x="410" y="700" width="110" height="50" as="geometry"/>
                </mxCell>
                <mxCell id="17" value="系统消息" style="html=1;fillColor=#dae8fc;strokeColor=#6c8ebf;" parent="1" vertex="1">
                    <mxGeometry x="410" y="770" width="110" height="50" as="geometry"/>
                </mxCell>
                <mxCell id="18" value="帮助与反馈" style="html=1;fillColor=#dae8fc;strokeColor=#6c8ebf;" parent="1" vertex="1">
                    <mxGeometry x="535" y="700" width="110" height="50" as="geometry"/>
                </mxCell>
                <mxCell id="20" value="" style="html=1;" parent="1" vertex="1">
                    <mxGeometry x="100" y="650" width="280" height="190" as="geometry"/>
                </mxCell>
                <mxCell id="21" value="用户" style="text;html=1;align=center;verticalAlign=middle;resizable=0;points=[];autosize=1;strokeColor=none;fillColor=none;" parent="1" vertex="1">
                    <mxGeometry x="215" y="660" width="50" height="30" as="geometry"/>
                </mxCell>
                <mxCell id="22" value="注册登录" style="html=1;fillColor=#dae8fc;strokeColor=#6c8ebf;" parent="1" vertex="1">
                    <mxGeometry x="120" y="700" width="110" height="50" as="geometry"/>
                </mxCell>
                <mxCell id="23" value="个人信息管理" style="html=1;fillColor=#dae8fc;strokeColor=#6c8ebf;" parent="1" vertex="1">
                    <mxGeometry x="250" y="700" width="110" height="50" as="geometry"/>
                </mxCell>
                <mxCell id="24" value="用户组织管理" style="html=1;fillColor=#dae8fc;strokeColor=#6c8ebf;" parent="1" vertex="1">
                    <mxGeometry x="120" y="770" width="110" height="50" as="geometry"/>
                </mxCell>
                <mxCell id="25" value="项目管理" style="html=1;fillColor=#dae8fc;strokeColor=#6c8ebf;" parent="1" vertex="1">
                    <mxGeometry x="140" y="400" width="110" height="50" as="geometry"/>
                </mxCell>
                <mxCell id="26" value="" style="html=1;" parent="1" vertex="1">
                    <mxGeometry x="670" y="650" width="157" height="190" as="geometry"/>
                </mxCell>
                <mxCell id="27" value="统计分析" style="text;html=1;align=center;verticalAlign=middle;resizable=0;points=[];autosize=1;strokeColor=none;fillColor=none;" parent="1" vertex="1">
                    <mxGeometry x="722" y="660" width="70" height="30" as="geometry"/>
                </mxCell>
                <mxCell id="30" value="使用统计" style="html=1;fillColor=#dae8fc;strokeColor=#6c8ebf;" parent="1" vertex="1">
                    <mxGeometry x="697" y="700" width="110" height="50" as="geometry"/>
                </mxCell>
                <mxCell id="31" value="存储统计" style="html=1;fillColor=#dae8fc;strokeColor=#6c8ebf;" parent="1" vertex="1">
                    <mxGeometry x="697" y="770" width="110" height="50" as="geometry"/>
                </mxCell>
                <mxCell id="33" value="基础业务" style="text;html=1;align=center;verticalAlign=middle;resizable=0;points=[];autosize=1;strokeColor=none;fillColor=none;" parent="1" vertex="1">
                    <mxGeometry x="510" y="610" width="70" height="30" as="geometry"/>
                </mxCell>
                <mxCell id="34" value="CodePod 业务架构图" style="text;html=1;align=center;verticalAlign=middle;resizable=0;points=[];autosize=1;strokeColor=none;fillColor=none;fontSize=20;" parent="1" vertex="1">
                    <mxGeometry x="465" y="240" width="210" height="40" as="geometry"/>
                </mxCell>
                <mxCell id="35" value="Web IDE" style="html=1;fillColor=#dae8fc;strokeColor=#6c8ebf;" parent="1" vertex="1">
                    <mxGeometry x="320" y="470" width="110" height="50" as="geometry"/>
                </mxCell>
                <mxCell id="36" value="" style="html=1;" parent="1" vertex="1">
                    <mxGeometry x="650" y="350" width="340" height="200" as="geometry"/>
                </mxCell>
                <mxCell id="37" value="Code Pod 云服务" style="text;html=1;align=center;verticalAlign=middle;resizable=0;points=[];autosize=1;strokeColor=none;fillColor=none;" parent="1" vertex="1">
                    <mxGeometry x="750" y="360" width="120" height="30" as="geometry"/>
                </mxCell>
                <mxCell id="38" value="数据库" style="html=1;fillColor=#dae8fc;strokeColor=#6c8ebf;" parent="1" vertex="1">
                    <mxGeometry x="693.5" y="400" width="110" height="50" as="geometry"/>
                </mxCell>
                <mxCell id="39" value="中间件" style="html=1;fillColor=#dae8fc;strokeColor=#6c8ebf;" parent="1" vertex="1">
                    <mxGeometry x="693.5" y="470" width="110" height="50" as="geometry"/>
                </mxCell>
                <mxCell id="40" value="云存储" style="html=1;fillColor=#dae8fc;strokeColor=#6c8ebf;" parent="1" vertex="1">
                    <mxGeometry x="850" y="400" width="110" height="50" as="geometry"/>
                </mxCell>
                <mxCell id="44" value="核心业务" style="text;html=1;align=center;verticalAlign=middle;resizable=0;points=[];autosize=1;strokeColor=none;fillColor=none;" parent="1" vertex="1">
                    <mxGeometry x="515" y="310" width="70" height="30" as="geometry"/>
                </mxCell>
                <mxCell id="45" value="" style="html=1;" parent="1" vertex="1">
                    <mxGeometry x="840" y="650" width="150" height="190" as="geometry"/>
                </mxCell>
                <mxCell id="46" value="微信公众号" style="text;html=1;align=center;verticalAlign=middle;resizable=0;points=[];autosize=1;strokeColor=none;fillColor=none;" parent="1" vertex="1">
                    <mxGeometry x="870" y="660" width="80" height="30" as="geometry"/>
                </mxCell>
                <mxCell id="47" value="微信登录" style="html=1;fillColor=#dae8fc;strokeColor=#6c8ebf;" parent="1" vertex="1">
                    <mxGeometry x="860" y="700" width="110" height="50" as="geometry"/>
                </mxCell>
                <mxCell id="48" value="文章推送" style="html=1;fillColor=#dae8fc;strokeColor=#6c8ebf;" parent="1" vertex="1">
                    <mxGeometry x="860" y="770" width="110" height="50" as="geometry"/>
                </mxCell>
                <mxCell id="49" value="CI/CD" style="html=1;fillColor=#dae8fc;strokeColor=#6c8ebf;" parent="1" vertex="1">
                    <mxGeometry x="850" y="470" width="110" height="50" as="geometry"/>
                </mxCell>
                <mxCell id="51" value="订单计费" style="html=1;fillColor=#dae8fc;strokeColor=#6c8ebf;" parent="1" vertex="1">
                    <mxGeometry x="535" y="770" width="110" height="50" as="geometry"/>
                </mxCell>
                <mxCell id="52" value="空间互联" style="html=1;fillColor=#dae8fc;strokeColor=#6c8ebf;" parent="1" vertex="1">
                    <mxGeometry x="484" y="470" width="110" height="50" as="geometry"/>
                </mxCell>
            </root>
        </mxGraphModel>
    </diagram>
</mxfile>